# xmcd CD database file
#
# Track frame offsets:
#	182
#	17930
#	36895
#	53122
#	68707
#	85495
#	103997
#	119860
#	139015
#	154450
#	164912
#	180382
#	200372
#
# Disc length: 2706 seconds
#
# Revision: 5
# Processed by: cddbd v1.5.2PL0 Copyright (c) Steve Scherf et al.
# Submitted via: CDex 1.51
#
DISCID=c40a900d
DTITLE=One+One - Daniel Adjadj, Lyrics and Jean-Luc Escriva, Music
DYEAR=1989
DGENRE=Jazz
TTITLE0=Hollywood
TTITLE1=See The World
TTITLE2=Peace Song
TTITLE3=Time For Dreams
TTITLE4=Pastime
TTITLE5=Like A Bird
TTITLE6=Every Night, Every Day
TTITLE7=Tina's Walltz
TTITLE8=We Were Two
TTITLE9=Trying To Say
TTITLE10=The Two Wizards
TTITLE11=Don't Say Goodbye
TTITLE12=Melody
EXTD=YEAR: 1989
EXTT0=
EXTT1=
EXTT2=
EXTT3=
EXTT4=
EXTT5=
EXTT6=
EXTT7=
EXTT8=
EXTT9=
EXTT10=
EXTT11=
EXTT12=
PLAYORDER=
